<svg xmlns="http://www.w3.org/2000/svg" viewBox="0 0 1035.28 304.5"><title>excepidWordmarkAsset 1</title><g id="Layer_2" data-name="Layer 2"><g id="Layer_2-2" data-name="Layer 2"><path d="M83.3,65.45c51.1,0,81.2,39.9,81.2,84,0,8.4-5.6,13.3-15.4,13.3H27.65c2.1,31.85,24.5,58.45,60.9,58.45a73,73,0,0,0,45.5-16.1,11.51,11.51,0,0,1,6-1.4,10.61,10.61,0,0,1,10.85,10.5A11,11,0,0,1,146.3,223c-16.8,13-36.75,20-60.2,20C36.05,242.9,0,206.85,0,154,0,105,35,65.45,83.3,65.45ZM27.65,143.5h111c-.35-25.2-17.15-56.35-55.65-56.35C46.9,87.15,29.05,117.6,27.65,143.5Z"/><path d="M311.5,220.5l-56.35-69.3-15.4-17.85L190,72.45a10.55,10.55,0,0,0-8.75-4.2,12.78,12.78,0,0,0-12.6,12.6,13.48,13.48,0,0,0,3.15,7.7L224.7,151.2l15.05,17.85L292.6,235.9a11.81,11.81,0,0,0,3.24,2.56,13.31,13.31,0,0,0,6.21,1.64,12.13,12.13,0,0,0,12.25-12.25,11.59,11.59,0,0,0-.42-3.09A9.72,9.72,0,0,0,311.5,220.5Z"/><path d="M247.41,126.92l14.27,16.54L308,88.55a13,13,0,0,0,2.8-7.7,12.47,12.47,0,0,0-12.25-12.6,10.76,10.76,0,0,0-9.1,4.2l-43.25,53Z"/><path d="M232,175.38l-13.75-16.3L168,220.5a10.63,10.63,0,0,0-2.8,7.35,12.13,12.13,0,0,0,12.25,12.25,12.71,12.71,0,0,0,9.8-4.9l46.11-58.1Z"/><path d="M399.35,65.45c24.5,0,41,8,54.25,21a12.71,12.71,0,0,1,3.85,8.75,11.8,11.8,0,0,1-11.9,11.9,11.1,11.1,0,0,1-7.7-3.15c-10.85-10.85-22.75-15-37.1-15-36.05,0-58.45,27.65-58.45,65.1s22.4,65.45,58.45,65.45c14.35,0,26.25-4.2,36.75-15.05a11.09,11.09,0,0,1,8.05-3.15,11.8,11.8,0,0,1,11.9,11.9,12.06,12.06,0,0,1-3.85,8.75c-13.3,13-29.75,21-54.25,21-50.4,0-84.35-38.5-84.35-88.9C315,104,348.95,65.45,399.35,65.45Z"/><path d="M546.11,65.45c51.1,0,81.2,39.9,81.2,84,0,8.4-5.6,13.3-15.4,13.3H490.46c2.1,31.85,24.5,58.45,60.9,58.45a73,73,0,0,0,45.5-16.1,11.51,11.51,0,0,1,6-1.4,10.61,10.61,0,0,1,10.85,10.5,11,11,0,0,1-4.55,8.75c-16.8,13-36.75,20-60.2,20-50.05,0-86.1-36.05-86.1-88.9C462.81,105,497.81,65.45,546.11,65.45ZM490.46,143.5h111c-.35-25.2-17.15-56.35-55.65-56.35C509.71,87.15,491.86,117.6,490.46,143.5Z"/><path d="M805.52,154c0,54.6-30.8,88.9-75.25,88.9-22.75,0-43.05-10.85-57.05-30.1v78.75a13.13,13.13,0,0,1-26.25,0V81.2a13.13,13.13,0,0,1,26.25,0V94.85a70.66,70.66,0,0,1,57.05-29.4C774.72,65.45,805.52,99.05,805.52,154Zm-27.65,0c0-37.45-20.3-65.1-54.25-65.1-20.65,0-41.3,12.25-50.4,27v76.3c9.1,14.7,29.75,27.3,50.4,27.3C757.57,219.45,777.87,191.45,777.87,154Z"/><path d="M1035.28,16.8V227.15a13.13,13.13,0,0,1-26.25,0V213.5c-12.6,17.15-33.25,29.4-57.05,29.4-44.1,0-75.25-33.6-75.25-88.55,0-53.9,30.8-88.9,75.25-88.9,22.75,0,43.05,11.2,57.05,30.1V16.8a13.13,13.13,0,0,1,26.25,0ZM1009,192.85V116.2c-9.45-14.7-29.75-27.3-50.75-27.3-34,0-54.25,28-54.25,65.45s20.3,65.1,54.25,65.1C979.28,219.45,999.58,207.55,1009,192.85Z"/><path d="M825.17,17.85a17.68,17.68,0,1,1,35.35,0,17.68,17.68,0,0,1-35.35,0Zm4.55,209.3V81.2a13.13,13.13,0,0,1,26.25,0v146a13.13,13.13,0,0,1-26.25,0Z"/></g></g></svg>